<svg width="40" height="40" viewBox="0 0 40 40" fill="none" xmlns="http://www.w3.org/2000/svg">
<g clip-path="url(#clip0)">
<path d="M3.57153 24.2854H6.42868V26.4283H3.57153V24.2854Z" fill="black"/>
<path d="M3.57153 20.7141H6.42868V22.857H3.57153V20.7141Z" fill="black"/>
<path d="M3.57153 17.1428H6.42868V19.2857H3.57153V17.1428Z" fill="black"/>
<path d="M3.57153 9.99993V12.1428H6.42868V9.28564H4.28582C3.89136 9.28564 3.57153 9.60547 3.57153 9.99993Z" fill="black"/>
<path d="M3.57153 13.5713H6.42868V15.7141H3.57153V13.5713Z" fill="black"/>
<path d="M3.57153 27.8569H6.42868V29.9998H3.57153V27.8569Z" fill="black"/>
<path d="M3.57153 32.8568C3.57153 33.2513 3.89136 33.5711 4.28582 33.5711H6.42868V31.4282H3.57153V32.8568Z" fill="black"/>
<path d="M31.4286 2.85718H30V15.8415C30.4921 16.0428 30.9696 16.2785 31.4286 16.5464V2.85718Z" fill="black"/>
<path d="M5.00015 1.01001L1.01019 4.99997H5.00015V1.01001Z" fill="black"/>
<path d="M7.85724 9.28296H19.2857V12.1429H7.85724V9.28296Z" fill="black"/>
<path d="M25 10.0001C25.0011 9.62866 24.7151 9.3193 24.3443 9.2907C24.3147 9.28896 24.285 9.28512 24.2557 9.27954H20.7143V12.143H25V10.0001Z" fill="black"/>
<path d="M31.4285 37.1426V36.3003C30.8607 36.6316 30.265 36.9134 29.6487 37.1426H31.4285Z" fill="black"/>
<path d="M22.8571 26.4284C22.8571 28.0063 24.1364 29.2856 25.7143 29.2856C27.2925 29.2856 28.5714 28.0063 28.5714 26.4284C28.5714 24.8506 27.2925 23.5713 25.7143 23.5713C24.1364 23.5713 22.8571 24.8506 22.8571 26.4284ZM27.1428 26.4284C27.1428 27.2174 26.5035 27.857 25.7143 27.857C24.9253 27.857 24.2857 27.2174 24.2857 26.4284C24.2857 25.6395 24.9253 24.9999 25.7143 24.9999C26.5035 24.9999 27.1428 25.6395 27.1428 26.4284Z" fill="black"/>
<path d="M25.7142 30.7141C25.5667 30.7141 25.4192 30.7064 25.2723 30.691C22.946 30.6377 20.6982 29.8414 18.8574 28.4185C19.7409 31.4702 22.5352 33.5705 25.7121 33.5705C28.8894 33.5705 31.6838 31.4702 32.5672 28.4185C30.7271 29.8411 28.4796 30.6373 26.1544 30.691C26.0082 30.7064 25.8614 30.7141 25.7142 30.7141Z" fill="black"/>
<path d="M21.4286 26.4283C21.4293 25.6637 21.6358 24.9132 22.0268 24.2561C20.7998 24.7262 19.6959 25.4691 18.7982 26.4283C19.6959 27.3874 20.7998 28.1303 22.0268 28.6004C21.6358 27.9433 21.4293 27.1928 21.4286 26.4283Z" fill="black"/>
<path d="M39.7658 38.6326L34.657 33.5242C34.3232 33.9427 33.9605 34.3372 33.5713 34.7048L38.6323 39.7655C38.9452 40.0783 39.4523 40.0783 39.7651 39.7655C40.078 39.4526 40.078 38.9455 39.7651 38.6326H39.7658Z" fill="black"/>
<path d="M25.7142 16.4285C20.1914 16.4285 15.7143 20.9056 15.7143 26.4284C15.7143 31.9512 20.1914 36.4283 25.7142 36.4283C31.2373 36.4283 35.7141 31.9512 35.7141 26.4284C35.7085 20.9081 31.2349 16.4344 25.7142 16.4285ZM25.7142 34.9998C20.9807 34.9998 17.1429 31.1622 17.1429 26.4284C17.1429 21.6945 20.9807 17.857 25.7142 17.857C30.448 17.857 34.2856 21.6945 34.2856 26.4284C34.2807 31.1601 30.446 34.9945 25.7142 34.9998Z" fill="black"/>
<path d="M14.2858 26.4283C14.2715 22.8894 15.9041 19.545 18.7033 17.3792C21.5022 15.2137 25.1496 14.4736 28.5714 15.3762V0H6.4287V5.71424C6.4287 6.1087 6.10923 6.42852 5.71442 6.42852H0.000183105V37.1425H21.7753C17.2828 35.4904 14.2941 31.2152 14.2858 26.4283ZM9.28582 2.14284H19.2857V3.5714H9.28582V2.14284ZM19.2857 4.99996V6.42852H16.4286V4.99996H19.2857ZM9.28582 4.99996H15.0001V6.42852H9.28582V4.99996ZM15.0001 34.9997H4.28586C3.10249 34.9997 2.14302 34.0402 2.14302 32.8569V9.99992C2.14302 8.81654 3.10249 7.85708 4.28586 7.85708H24.2857C24.3492 7.85673 24.4123 7.86056 24.4751 7.86859C25.5796 7.96659 26.4271 8.89083 26.4285 9.99992V13.5713H20.7143V14.2856H19.2857V13.5713H7.85726V15.7142H17.1429V17.1427H7.85726V19.2856H14.2858V20.7141H7.85726V22.857H13.0002V24.2855H7.85726V26.4283H12.8572V27.8569H7.85726V29.9997H13.5715V31.4283H7.85726V33.5711H15.0001V34.9997Z" fill="black"/>
<path d="M2.8573 38.571H31.4285V39.9996H2.8573V38.571Z" fill="black"/>
<path d="M25.7143 22.1426C25.8621 22.1426 26.0097 22.1502 26.1565 22.1656C28.4828 22.2189 30.7306 23.0152 32.5714 24.4382C31.688 21.3864 28.8936 19.2861 25.7167 19.2861C22.5394 19.2861 19.7451 21.3864 18.8616 24.4382C20.7017 23.0155 22.9492 22.2193 25.2745 22.1656C25.4206 22.1502 25.5674 22.1426 25.7143 22.1426Z" fill="black"/>
<path d="M32.6307 26.4283C31.7329 25.4691 30.6291 24.7262 29.4021 24.2561C30.1994 25.5943 30.1994 27.2622 29.4021 28.6004C30.6291 28.1303 31.7329 27.3874 32.6307 26.4283Z" fill="black"/>
</g>
<defs>
<clipPath id="clip0">
<rect width="40" height="40" fill="white"/>
</clipPath>
</defs>
</svg>
