<svg width="34" height="40" viewBox="0 0 34 40" fill="none" xmlns="http://www.w3.org/2000/svg">
<path d="M24.9701 11.9641V7.97023C24.9701 3.57539 21.3947 0 17 0C12.6052 0 9.02982 3.57539 9.02982 7.97016V11.964H0.388962V40H33.611V11.9641H24.9701ZM14.108 7.97016C14.108 6.37555 15.4053 5.0782 17 5.0782C18.5946 5.0782 19.8919 6.37547 19.8919 7.97016V11.964H14.108V7.97016ZM17.7722 20.65V21.8219C17.7722 23.8182 16.4221 25.5039 14.5874 26.0171V34.6941H12.2436V26.0172C10.4088 25.504 9.05881 23.8181 9.05881 21.822V20.6501V17.27H11.4026V20.6501H12.2436V17.27H14.5874V20.6501H15.4283V17.27H17.7722V20.65ZM24.9411 25.1567C24.9411 27.1235 23.6144 28.7852 21.8093 29.2969V34.6941H19.4654V29.4604V27.3502V17.2709H20.6373C23.0104 17.2709 24.941 19.2015 24.941 21.5745V25.1567H24.9411Z" fill="black"/>
</svg>
