<svg width="40" height="40" viewBox="0 0 40 40" fill="none" xmlns="http://www.w3.org/2000/svg">
<path d="M17.6426 38.2986C13.6002 40.5809 3.76226 40.5704 0 38.2465C0.368221 36.652 0.672403 34.9742 1.1607 33.411C1.42485 32.5669 1.91315 31.5768 2.4975 31.2225C5.53932 29.3571 8.54913 26.783 12.0873 29.5134C12.3834 29.7427 12.7356 29.8677 13.0718 29.9511C15.3932 30.5035 16.602 32.4939 17.1543 35.3077C17.3624 36.3081 17.4905 37.3294 17.6426 38.2986Z" fill="black"/>
<path d="M24.8709 19.8841C25.3032 20.9679 25.7755 22.1455 26.2477 23.3336C26.2958 23.4586 26.4399 23.4482 26.4799 23.3127C26.608 22.875 26.7761 22.0622 26.8881 21.7078C26.9362 21.5515 26.9842 21.5411 26.9922 21.3744C26.9922 21.1763 26.728 20.895 26.5359 20.5823C26.4639 20.4677 26.5519 20.2905 26.664 20.3218C27.1443 20.4781 27.5845 20.3739 28.0088 20.2593C28.1209 20.228 28.2089 20.4052 28.1369 20.5198C27.9688 20.8012 27.7606 20.9888 27.6646 21.3014C27.6486 21.3535 27.6566 21.4056 27.6806 21.4473C27.8007 21.7078 27.9928 22.7708 28.1369 23.3023C28.1769 23.4378 28.313 23.4482 28.369 23.3231C28.8493 22.1247 29.3376 20.9262 29.8179 19.7382C29.8419 19.6757 29.9059 19.634 29.954 19.6548C34.6688 20.9262 35.4373 23.8025 35.7655 28.3775C35.7735 28.4713 35.7174 28.5546 35.6374 28.5546H18.9394C18.8673 28.5546 18.8113 28.4713 18.8113 28.3775C19.0514 23.5107 20.7404 20.3426 24.7428 19.8007C24.7989 19.7903 24.8469 19.8216 24.8709 19.8841Z" fill="black"/>
<path d="M8.43709 14.2567C6.60399 14.2567 4.79491 14.2775 2.99383 14.2567C0.832529 14.2358 1.13671 14.6422 1.1207 11.7868C1.10469 9.65043 1.09669 7.51406 1.14472 5.37769C1.15272 5.01294 0.952601 4.28345 2.16933 4.28345C4.88296 4.28345 7.60459 4.28345 10.4303 4.28345C10.4303 6.04465 10.4303 7.67038 10.4303 9.2961C10.4303 11.8597 10.4303 11.8597 12.3194 12.1099C12.7117 14.0586 12.5996 14.2983 11.1267 14.2567C10.4463 14.2358 9.70185 14.2879 9.4457 15.2988C9.30962 15.8407 9.20555 16.3097 8.97341 16.8203C8.82132 16.6431 8.82132 15.1008 8.43709 14.2567Z" fill="black"/>
<path d="M21.4929 11.2553C21.4689 11.7034 21.4449 12.0994 21.4208 12.4955C21.4048 12.8498 21.3888 13.2041 21.3568 14.0274C20.7725 13.1937 19.4437 11.1615 18.8833 11.1719C16.61 11.2136 14.3366 11.1511 12.0712 11.2032C11.3188 11.2241 11.0146 10.9635 11.0306 9.91096C11.0786 7.0451 11.0786 4.17924 11.0306 1.31337C11.0146 0.26082 11.3348 -0.0101349 12.0792 0.00028638C15.6094 0.0315503 19.1395 0.0419717 22.6696 0.00028638C23.5101 -0.0101349 23.7422 0.396297 23.7262 1.43843C23.6782 4.16882 23.6622 6.8992 23.7342 9.62959C23.7663 10.9114 23.4541 11.3804 22.4935 11.2032C22.1813 11.1511 21.8691 11.2345 21.4929 11.2553ZM23.0058 1.01115C19.1795 1.01115 15.4653 1.01115 11.7591 1.01115C11.7591 4.18966 11.7591 7.24311 11.7591 10.2653C15.5533 10.2653 19.2676 10.2653 23.0058 10.2653C23.0058 7.13889 23.0058 4.11671 23.0058 1.01115Z" fill="black"/>
<path d="M15.5533 29.9614C17.4425 31.8581 17.9868 34.3905 18.4111 37.0375C23.342 37.0375 28.1929 37.0375 33.0518 37.0271C33.276 37.0271 33.5401 36.902 33.7162 36.7249C35.7655 34.5468 37.7987 32.3375 40 29.9718C31.7631 29.9614 23.7663 29.9614 15.5533 29.9614ZM26.5119 34.8178C26.3598 34.9741 26.1277 35.0783 25.9356 35.0783C24.4467 35.0991 22.9578 35.0887 21.3888 35.0887C25.0871 31.3266 25.2632 31.2016 25.2632 31.2016C25.2632 31.2016 27.8968 31.0661 29.7939 31.2849C28.6012 32.5772 27.5686 33.7131 26.5119 34.8178Z" fill="black"/>
</svg>
