<svg width="40" height="40" viewBox="0 0 40 40" fill="none" xmlns="http://www.w3.org/2000/svg">
<path d="M11.7967 32.8906C11.7967 30.3054 9.69448 28.2031 7.10928 28.2031C4.52408 28.2031 2.42184 30.3054 2.42184 32.8906V35.2343C2.42184 36.5263 1.29201 37.6561 0 37.6561V39.9998H4.76556C8.64277 39.9998 11.7967 36.7678 11.7967 32.8906Z" fill="black"/>
<path d="M19.614 9.81268C18.9887 9.98088 18.617 10.6214 18.7855 11.2478C18.947 11.8504 19.5654 12.2468 20.2206 12.0763C20.8503 11.9069 21.2158 11.2633 21.0491 10.6412C20.8799 10.0125 20.2326 9.64588 19.614 9.81268Z" fill="black"/>
<path d="M12.9846 18.7056C13.6064 18.8705 14.2499 18.5086 14.4197 17.877C14.5889 17.2456 14.2122 16.6086 13.5922 16.442H13.5911C13.2586 16.3523 13.1688 16.4198 12.9337 16.4965C12.947 17.2027 12.9563 17.9355 12.9612 18.6941C12.9698 18.6966 12.9758 18.7033 12.9846 18.7056Z" fill="black"/>
<path d="M25.9014 28.7512C25.7319 28.121 25.0852 27.7568 24.4663 27.9238C23.8302 28.0948 23.4724 28.744 23.6378 29.3588C23.8049 29.9825 24.4412 30.351 25.0729 30.1874C25.6983 30.0192 26.0699 29.3787 25.9014 28.7523V28.7512Z" fill="black"/>
<path d="M29.8015 14.2001C30.2581 13.7424 30.2581 12.9985 29.8015 12.5418C29.3446 12.085 28.602 12.0831 28.1432 12.5418C27.6866 12.9985 27.6866 13.7435 28.1444 14.2001C28.5998 14.6556 29.3437 14.6556 29.8015 14.2001Z" fill="black"/>
<path d="M22.4121 2.36035C18.5625 2.4991 15.0288 4.02088 12.2121 5.95288C12.5278 8.10191 12.7508 10.7768 12.8696 14.085C13.3083 14.0326 13.7571 14.0603 14.1965 14.1785C16.0745 14.6807 17.1877 16.6058 16.6833 18.4837C16.2581 20.0721 14.8232 21.0906 13.2936 21.0906C13.181 21.0906 13.0688 21.0569 12.9562 21.046C12.9421 22.9204 12.8996 24.7749 12.8187 26.5459C14.019 27.0445 14.9571 27.7088 15.5697 28.5693C16.8102 30.3122 16.4795 32.3561 16.3491 32.942C15.9145 34.8883 17.062 36.8697 19.0281 37.2484C20.1393 37.4613 21.2563 37.5665 22.3652 37.5665C32.0032 37.5665 40.078 29.7377 39.9994 19.8593C39.9173 9.84048 31.2474 2.02747 22.4121 2.36035ZM26.485 10.8849C27.8583 9.51392 30.0875 9.51392 31.4585 10.8849C32.8295 12.2559 32.8295 14.4864 31.4585 15.8573V15.8584C30.0877 17.227 27.8571 17.2272 26.4862 15.8584C25.1163 14.4863 25.1163 12.2559 26.485 10.8849ZM16.5219 11.853C16.0231 10.0004 17.1109 8.0559 19.0075 7.54895C20.8717 7.04888 22.8091 8.16121 23.3126 10.0345C23.816 11.9087 22.7054 13.8369 20.8271 14.3397C18.9536 14.8418 17.0253 13.7359 16.5219 11.853ZM25.6793 32.451C23.8062 32.9528 21.8765 31.8372 21.3742 29.9654C20.8708 28.0913 21.9814 26.1631 23.8597 25.6603C25.746 25.1585 27.6638 26.2728 28.1649 28.147C28.6698 30.024 27.5536 31.9499 25.6793 32.451ZM34.7944 23.3359C34.2923 25.2139 32.3627 26.3253 30.4892 25.8215C28.6162 25.3201 27.4981 23.3978 28.0036 21.5163C28.5109 19.6212 30.452 18.5332 32.3088 19.0307C34.1822 19.5331 35.2969 21.4649 34.7944 23.3359Z" fill="black"/>
<path d="M31.7023 21.2942C31.0885 21.1287 30.4385 21.4863 30.2672 22.1227C30.098 22.7541 30.4747 23.3912 31.0947 23.5578C31.7364 23.7236 32.3647 23.3475 32.5309 22.7293C32.6979 22.1056 32.326 21.4613 31.7023 21.2942Z" fill="black"/>
<path d="M10.6108 21.1718C10.614 20.7797 10.6249 20.3938 10.6249 20C10.6249 10.9124 10.0149 0.000244141 7.10932 0.000244141C4.20374 0.000244141 3.59375 10.9124 3.59375 20C3.59375 20.3938 3.60461 20.7797 3.60789 21.1718H10.6108Z" fill="black"/>
<path d="M7.10928 25.8591C8.33036 25.8591 9.46245 26.1999 10.4641 26.7495C10.5147 25.6978 10.5534 24.6146 10.5804 23.5154H3.63815C3.66518 24.6146 3.70378 25.6978 3.75448 26.7495C4.75611 26.1998 5.8882 25.8591 7.10928 25.8591Z" fill="black"/>
</svg>
