<svg width="40" height="40" viewBox="0 0 40 40" fill="none" xmlns="http://www.w3.org/2000/svg">
<path d="M1.17188 0.078125C0.524687 0.078125 0 0.602812 0 1.25V28.2031H15.3125C16.6305 28.2031 17.8482 28.6405 18.8281 29.3778V5.54688C18.8281 2.52656 16.3797 0.078125 13.3594 0.078125H1.17188ZM14.1406 24.6875H4.6875C4.04031 24.6875 3.51562 24.1628 3.51562 23.5156C3.51562 22.8684 4.04031 22.3438 4.6875 22.3438H14.1406C14.7878 22.3438 15.3125 22.8684 15.3125 23.5156C15.3125 24.1628 14.7878 24.6875 14.1406 24.6875ZM14.1406 20H4.6875C4.04031 20 3.51562 19.4753 3.51562 18.8281C3.51562 18.1809 4.04031 17.6562 4.6875 17.6562H14.1406C14.7878 17.6562 15.3125 18.1809 15.3125 18.8281C15.3125 19.4753 14.7878 20 14.1406 20ZM14.1406 15.3125H4.6875C4.04031 15.3125 3.51562 14.7878 3.51562 14.1406C3.51562 13.4934 4.04031 12.9688 4.6875 12.9688H14.1406C14.7878 12.9688 15.3125 13.4934 15.3125 14.1406C15.3125 14.7878 14.7878 15.3125 14.1406 15.3125ZM14.1406 10.625H4.6875C4.04031 10.625 3.51562 10.1003 3.51562 9.45312C3.51562 8.80594 4.04031 8.28125 4.6875 8.28125H14.1406C14.7878 8.28125 15.3125 8.80594 15.3125 9.45312C15.3125 10.1003 14.7878 10.625 14.1406 10.625ZM14.1406 5.9375H4.6875C4.04031 5.9375 3.51562 5.41281 3.51562 4.76562C3.51562 4.11844 4.04031 3.59375 4.6875 3.59375H14.1406C14.7878 3.59375 15.3125 4.11844 15.3125 4.76562C15.3125 5.41281 14.7878 5.9375 14.1406 5.9375Z" fill="black"/>
<path d="M15.3125 30.5469H0V34.0625C0 34.7097 0.524687 35.2344 1.17188 35.2344H18.8281V34.0625C18.8281 32.124 17.251 30.5469 15.3125 30.5469Z" fill="black"/>
<path d="M21.1719 26.1479V29.3778C21.9119 28.8211 22.7877 28.4356 23.7396 28.2801C22.7659 27.72 21.8978 26.9965 21.1719 26.1479Z" fill="black"/>
<path d="M28.5938 27.2292C24.5013 27.2292 21.1719 23.8998 21.1719 19.8073C21.1719 15.7149 24.5013 12.3855 28.5938 12.3855C32.6862 12.3855 36.0156 15.715 36.0156 19.8074C36.0156 23.8998 32.6862 27.2292 28.5938 27.2292Z" fill="black"/>
<path d="M24.6875 30.5469C22.749 30.5469 21.1719 32.124 21.1719 34.0625V35.2344H29.2199L27.5138 30.5469H24.6875Z" fill="black"/>
<path d="M40 34.0625V30.5469H37.4904L39.1772 35.1815C39.6539 35.0328 40 34.5881 40 34.0625Z" fill="black"/>
<path d="M38.8281 0.078125H26.6406C23.6203 0.078125 21.1719 2.52656 21.1719 5.54688V13.4691C23.0226 11.3056 25.8002 9.95742 28.8837 10.0472C34.0713 10.1983 38.2647 14.4413 38.3578 19.6303C38.4033 22.1659 37.4763 24.4882 35.9265 26.25L36.6373 28.2031H40V1.25C40 0.602812 39.4753 0.078125 38.8281 0.078125ZM35.3125 5.9375H25.8594C25.2122 5.9375 24.6875 5.41281 24.6875 4.76562C24.6875 4.11844 25.2122 3.59375 25.8594 3.59375H35.3125C35.9597 3.59375 36.4844 4.11844 36.4844 4.76562C36.4844 5.41281 35.9597 5.9375 35.3125 5.9375Z" fill="black"/>
<path d="M29.6337 29.5177L32.859 38.3793C33.3018 39.5956 34.6467 40.2228 35.863 39.7801C37.0794 39.3373 37.7065 37.9924 37.2638 36.7761L34.0373 27.9114C32.7525 28.7772 31.2515 29.3456 29.6337 29.5177Z" fill="black"/>
</svg>
